<svg width="717" height="184" viewBox="0 0 717 184" fill="none" xmlns="http://www.w3.org/2000/svg">
<path d="M145.909 166.623C147.99 160.123 145.944 157.203 139.215 157.053C130.702 156.864 122.182 157.001 113.665 156.996C97.1522 156.985 80.6393 157.005 64.1266 156.945C58.0989 156.924 55.4506 154.73 55.2103 149.865C54.956 144.715 57.6223 141.434 63.4185 141.268C75.7486 140.914 88.0933 141.067 100.432 141.018C108.651 140.985 112.63 138.327 112.57 132.894C112.511 127.43 108.361 124.541 100.495 124.541C71.2934 124.54 42.0916 124.552 12.8899 124.554C11.1521 124.554 9.39983 124.643 7.67948 124.458C3.3625 123.991 0.0674225 120.552 0.000948567 116.612C-0.0639824 112.763 3.21262 108.997 7.35084 108.364C8.8837 108.129 10.4721 108.226 12.0351 108.225C37.239 108.215 62.4428 108.214 87.6467 108.209C89.9063 108.208 92.1696 108.28 94.4249 108.177C99.8881 107.929 103.216 104.843 103.367 99.9943C103.525 94.937 100.14 91.3532 94.4709 91.2369C84.9146 91.0407 75.3517 91.1899 65.7918 91.1471C59.0614 91.117 55.2154 88.091 55.3225 83.0126C55.4265 78.0806 59.5284 74.8873 66.0394 74.8648C81.5092 74.8112 96.9792 74.8132 112.449 74.8299C116.778 74.8347 119.765 72.7844 121.431 68.9285C122.805 65.7474 121.168 63.1788 119.12 60.9156C117.503 59.1276 115.295 58.6355 112.954 58.6112C108.783 58.5677 104.604 58.6368 100.443 58.4097C94.4941 58.0852 91.0238 54.8974 91.0298 50.0697C91.036 45.059 94.2557 42.5304 100.646 42.3512C104.638 42.2392 108.64 42.0998 112.612 41.7093C117.374 41.2412 120.948 37.3792 120.826 33.1802C120.704 28.9315 116.996 25.5142 111.955 25.4576C100.136 25.3251 88.314 25.4851 76.497 25.2995C71.3795 25.2192 67.827 21.6655 67.8765 17.3545C67.9303 12.6574 71.4581 9.39033 76.8176 9.12133C78.2049 9.05172 79.5982 9.09559 80.9887 9.09563C100.63 9.09602 120.274 8.92619 139.913 9.17644C148.86 9.29044 157.27 7.89597 165.878 5.18104C196.735 -4.5503 226.208 -0.39018 253.92 16.1201C260.77 20.2014 260.757 21.4465 256.055 27.8796C251.747 33.7729 247.361 39.6164 243.272 45.6598C240.391 49.9187 237.588 50.2955 233.397 47.2543C221.181 38.3892 207.35 33.9801 192.295 34.8962C158.576 36.9481 135.818 62.1595 136.278 92.5454C136.663 118.006 157.733 142.004 183.754 146.831C206.412 151.035 226.966 141.911 237.497 122.944C238.671 120.83 239.917 118.719 240.164 116.109C238.489 114.341 236.276 115.092 234.326 115.082C219.725 115.013 205.124 115.09 190.524 115.023C187.514 115.009 183.83 116.097 182.044 112.633C180.216 109.089 183.555 106.873 185.217 104.434C188.837 99.1208 192.802 94.0452 196.498 88.7824C198.254 86.2814 200.393 85.167 203.498 85.1718C226.789 85.2078 250.081 85.1653 273.372 85.0453C277.533 85.0239 278.934 87.2762 278.986 90.8949C279.502 126.546 265.311 154.196 234.158 172.301C220.04 180.506 204.532 183.943 188.24 183.945C165.469 183.948 142.699 183.971 119.929 183.982C118.364 183.983 116.793 184.048 115.237 183.924C110.098 183.515 107.255 180.616 107.403 176.04C107.54 171.83 110.451 168.977 115.386 168.854C123.203 168.659 131.028 168.775 138.85 168.766C141.284 168.763 143.767 168.967 145.909 166.623Z" fill="url(#paint0_linear_6_25)"/>
<path d="M378.853 73.6467C385.977 73.8049 386.297 74.0116 386.404 80.3014C386.517 86.9603 386.338 93.6242 386.451 100.283C386.5 103.201 385.241 105.332 383.39 107.387C375.16 116.524 364.546 119.994 352.644 120.761C332.891 122.034 315.462 111.435 308.521 93.7239C300.216 72.5312 308.15 47.6791 326.727 36.7009C342.346 27.4702 364.307 28.9705 378.467 40.2952C381.126 42.421 383.862 44.4955 380.543 48.4337C375.221 54.7488 374.267 55.0854 369.588 51.3185C360.351 43.882 349.953 42.3646 339.057 46.4926C328.431 50.519 322.955 59.048 321.275 70.0044C318.343 89.131 328.248 104.202 345.748 107.27C353.407 108.612 360.696 107.29 367.242 102.897C369.313 101.507 371.225 99.9301 371.697 97.1692C373.287 87.891 372.099 86.4144 362.818 86.3967C360.318 86.3919 357.805 86.215 355.322 86.4151C350.771 86.7819 348.446 85.2522 348.644 80.2712C348.869 74.5676 349.478 73.711 355.378 73.6777C363.043 73.6345 370.708 73.6541 378.853 73.6467Z" fill="white"/>
<path d="M634.691 120.484C606.024 122.149 595.68 95.4035 603.075 75.9152C608.336 62.0534 623.093 54.4627 638.533 57.7043C652.309 60.5963 661.64 73.3683 660.802 87.9913C660.564 92.1448 658.302 93.2895 654.554 93.2591C643.559 93.1701 632.564 93.2172 621.569 93.2626C619.784 93.27 617.896 92.8241 616.269 93.9647C614.768 102.324 626.358 111.304 638.327 108.191C641.775 107.294 644.802 105.596 647.502 103.291C651.232 100.105 653.126 103.543 655.379 105.515C657.917 107.737 657.791 110.018 655.419 112.342C649.771 117.875 642.946 120.419 634.691 120.484ZM626.557 82.6757C631.699 82.6752 636.843 82.7566 641.982 82.6501C646.781 82.5507 647.483 81.1973 645.218 76.8562C640.191 67.2215 626.178 66.0248 619.146 74.6845C617.592 76.5987 615.6 78.8496 616.702 81.3444C617.737 83.6896 620.562 82.4032 622.603 82.6551C623.583 82.7761 624.591 82.6754 626.557 82.6757Z" fill="white"/>
<path d="M521.88 69.4406C518.811 70.6156 516.814 72.236 517.076 75.441C517.336 78.6204 519.675 79.9779 522.319 80.7464C526.781 82.0438 531.327 83.0504 535.798 84.3177C546.624 87.386 551.551 93.1271 551.281 102.204C551.022 110.918 545.168 117.73 535.021 119.769C524.609 121.862 514.439 120.824 505.514 114.295C502.945 112.417 500.283 110.382 503.212 106.566C507.026 101.597 508.389 101.091 512.677 104.349C518.04 108.424 524.002 109.785 530.553 108.718C534.068 108.146 537.056 106.543 537.512 102.656C537.986 98.6167 534.871 97.2337 531.724 96.3321C526.778 94.9154 521.736 93.8296 516.808 92.3592C507.734 89.6521 503.115 84.1387 502.989 76.2049C502.854 67.678 507.901 61.1246 517.022 58.4679C526.975 55.5686 536.439 56.9692 545.26 62.4245C548.019 64.1309 549.578 66.4437 547.051 69.3729C544.847 71.9272 543.091 76.3083 538.381 72.7213C533.561 69.05 528.111 68.2732 521.88 69.4406Z" fill="white"/>
<path d="M481.819 71.8894C479.382 74.939 477.215 74.3088 474.691 72.4658C469.867 68.942 464.457 67.7547 458.607 69.3808C455.875 70.1402 453.673 71.6561 453.431 74.7494C453.179 77.9704 455.334 79.668 458.03 80.4902C462.641 81.8964 467.344 82.9972 471.995 84.2757C483.274 87.3759 487.787 92.4425 487.76 101.914C487.733 110.971 482.033 117.777 471.372 119.778C461.164 121.693 451.09 120.796 442.268 114.322C439.312 112.153 437.228 109.893 440.333 106.133C444.226 101.418 445.18 101.063 449.464 104.459C454.968 108.822 461.191 109.787 467.868 108.597C471.261 107.992 473.959 106.021 474.213 102.462C474.467 98.8908 471.636 97.2747 468.584 96.4214C463.62 95.0334 458.566 93.9556 453.637 92.4591C444.093 89.5612 439.533 83.8475 439.696 75.3841C439.851 67.3246 445.176 60.9083 454.092 58.4028C462.969 55.9085 471.586 56.8402 479.774 61.0916C486.06 64.3557 486.342 65.8589 481.819 71.8894Z" fill="white"/>
<path d="M583.175 82C583.179 92.6644 583.237 102.829 583.16 112.993C583.117 118.711 582.244 119.364 575.701 119.332C569.587 119.302 568.834 118.686 568.825 112.948C568.785 87.7874 568.775 62.6263 568.814 37.4652C568.822 32.0268 570.125 30.8953 575.766 30.8392C581.776 30.7793 583.114 31.8859 583.14 37.5102C583.207 52.1732 583.169 66.8367 583.175 82Z" fill="white"/>
<path d="M678.576 88.9336C678.417 80.9851 678.134 73.5085 678.16 66.0331C678.171 62.918 677.332 59.0504 682.49 58.6084C690.238 57.9443 691.259 58.4169 692.936 64.8597C698.093 59.715 704.078 56.987 711.295 57.6539C715.237 58.0181 716.529 60.5066 716.009 66.333C715.689 69.9082 714.106 71.0357 710.404 70.644C699.889 69.5315 692.62 76.2256 692.378 87.1021C692.186 95.7438 692.364 104.393 692.307 113.039C692.268 118.889 691.52 119.179 684.416 119.414C679.416 119.579 677.985 117.268 678.123 112.808C678.362 105.01 678.435 97.207 678.576 88.9336Z" fill="white"/>
<path d="M411.191 119.301C407.759 119.215 406.683 117.497 406.685 114.743C406.697 97.4369 406.695 80.1309 406.687 62.8249C406.684 58.2478 409.954 58.5205 412.991 58.622C416.154 58.7276 420.265 57.6455 420.287 62.9039C420.358 80.2095 420.421 97.5166 420.26 114.821C420.201 121.107 415.074 118.847 411.191 119.301Z" fill="white"/>
<path d="M75.7373 55.257C66.2458 56.7279 57.0968 56.134 47.9895 55.7339C42.9462 55.5124 40.3311 51.9653 40.7399 47.4179C41.1345 43.0286 43.8391 40.6899 48.9479 40.6278C56.4295 40.5368 63.9138 40.6614 71.3952 40.5626C75.3599 40.5102 78.8627 41.291 80.1837 45.4984C81.4945 49.6737 80.0845 53.0109 75.7373 55.257Z" fill="#006999"/>
<path d="M323.144 163.25C323.696 165.038 324.149 166.454 324.819 168.548C327.324 164.221 327.727 159.784 329.162 155.73C329.885 153.687 330.217 151.414 333.182 151.508C335.85 151.593 336.231 153.624 336.801 155.553C338.025 159.684 339.272 163.809 340.758 168.767C343.028 164.695 343.315 160.76 344.594 157.19C345.041 155.943 345.287 154.625 345.707 153.367C346.294 151.61 347.693 151.199 349.305 151.555C351.267 151.988 351.404 153.467 350.94 155.063C348.899 162.076 346.829 169.082 344.755 176.086C344.209 177.927 342.975 178.729 341.023 178.655C339.046 178.581 338.053 177.584 337.513 175.765C336.209 171.375 334.809 167.014 333.019 161.268C331.22 166.849 329.761 171.019 328.554 175.261C327.924 177.476 326.938 178.765 324.455 178.684C322.119 178.608 321.378 177.081 320.843 175.229C319 168.848 317.138 162.472 315.316 156.085C314.815 154.328 314.054 152.299 316.651 151.577C319.201 150.868 320.25 152.621 320.839 154.718C321.602 157.43 322.312 160.158 323.144 163.25Z" fill="#006999"/>
<path d="M419.71 151.421C423.774 151.206 427.442 150.901 431.033 151.692C435.962 152.777 438.191 156.601 436.561 161.386C435.928 163.245 435.829 164.549 436.903 166.401C440.064 171.855 437.546 177.295 431.316 178.32C427.757 178.905 424.049 178.607 420.407 178.666C418.659 178.695 417.52 177.902 417.515 176.032C417.495 168.578 417.494 161.123 417.532 153.668C417.538 152.574 418.254 151.863 419.71 151.421ZM431.111 172.512C432.85 171.023 433.064 169.468 431.088 168.076C429.093 166.67 426.755 166.253 424.536 167.209C422.623 168.033 422.837 170.197 423.505 171.532C425.087 174.694 427.955 173.268 431.111 172.512ZM424.26 161.644C425.839 162.313 427.474 162.197 429.079 161.863C430.291 161.611 431.113 160.793 431.26 159.519C431.383 158.447 430.886 157.547 429.931 157.106C428.232 156.319 426.349 156.216 424.68 156.921C422.695 157.76 423.154 159.512 424.26 161.644Z" fill="#006999"/>
<path d="M690.619 161.965C690.65 159.201 690.673 156.869 690.708 154.536C690.733 152.834 691.348 151.548 693.27 151.547C694.853 151.546 695.851 152.603 695.867 154.054C695.95 161.378 695.945 168.703 695.848 176.026C695.829 177.461 694.851 178.423 693.267 178.596C691.36 178.805 690.097 177.859 689.076 176.42C685.825 171.842 682.581 167.26 678.307 162.905C678.307 166.82 678.323 170.735 678.3 174.649C678.288 176.58 678.06 178.523 675.509 178.505C672.98 178.487 672.73 176.551 672.724 174.619C672.701 168.287 672.698 161.955 672.716 155.623C672.721 153.948 672.665 152.161 674.787 151.582C676.81 151.029 678.365 151.802 679.54 153.46C682.429 157.538 685.322 161.613 688.194 165.703C688.578 166.249 688.848 166.875 689.202 167.522C691.253 165.67 690.294 163.904 690.619 161.965Z" fill="#006999"/>
<path d="M648.391 174.297C642.568 179.809 633.858 180.414 628.654 176.022C623.291 171.495 622.076 163.554 625.815 157.471C629.437 151.58 637.198 149.307 643.804 152.41C645.549 153.23 648.528 153.829 647.148 156.859C645.878 159.646 643.834 158.503 641.733 157.458C638.531 155.865 635.181 155.837 632.489 158.515C630.022 160.968 628.849 163.88 629.976 167.564C631.079 171.167 633.289 173.401 636.918 173.8C640.068 174.146 642.955 173.499 642.983 169.454C641.413 167.465 636.802 169.339 637.678 165.361C638.411 162.028 641.785 163.539 644.057 163.238C648.027 162.712 649.533 164.742 649.148 168.51C648.963 170.317 648.774 172.123 648.391 174.297Z" fill="#006999"/>
<path d="M461.755 161.454C461.715 150.913 461.987 150.658 472.068 151.296C480.642 151.84 485.431 156.928 485.355 165.416C485.284 173.458 480.318 178.304 471.773 178.67C461.777 179.099 461.777 179.099 461.76 168.913C461.756 166.59 461.757 164.267 461.755 161.454ZM478.235 159.783C476.015 156.542 472.624 155.921 469.349 156.899C465.804 157.957 467.72 161.438 467.402 163.856C467.143 165.821 467.415 167.849 467.355 169.846C467.276 172.442 468.632 173.289 471.047 173.414C477.96 173.771 481.146 168.377 478.235 159.783Z" fill="#006999"/>
<path d="M374.902 154.741C375.105 152.544 376.077 151.436 377.791 151.396C381.945 151.298 386.104 151.293 390.257 151.398C391.867 151.438 393.226 152.188 393.077 154.147C392.926 156.122 391.397 156.422 389.838 156.498C387.679 156.604 385.515 156.6 383.355 156.692C381.598 156.766 380.544 157.629 380.567 159.487C380.592 161.428 381.837 162.027 383.531 162.07C385.36 162.117 387.19 162.131 389.018 162.188C390.502 162.235 391.644 162.805 391.787 164.445C391.958 166.409 390.635 167.084 389.011 167.235C387.027 167.419 385.025 167.409 383.035 167.54C381.193 167.662 380.451 168.78 380.453 170.54C380.455 172.415 381.484 173.262 383.239 173.326C385.565 173.41 387.898 173.359 390.219 173.504C391.802 173.602 393.208 174.129 393.165 176.137C393.124 178.111 391.805 178.647 390.154 178.658C386.162 178.685 382.17 178.675 378.179 178.643C375.137 178.619 374.829 176.477 374.83 174.165C374.834 167.845 374.857 161.524 374.902 154.741Z" fill="#006999"/>
<path d="M516.125 168.237C514.462 172.15 516.126 173.424 519.578 173.388C521.571 173.368 523.57 173.381 525.557 173.516C527.009 173.615 528.123 174.325 528.156 175.971C528.188 177.556 527.293 178.549 525.756 178.575C521.272 178.65 516.783 178.652 512.299 178.553C510.102 178.505 509.68 176.836 509.675 175.035C509.659 168.383 509.678 161.732 509.657 155.081C509.65 152.936 510.501 151.465 512.767 151.407C516.919 151.301 521.076 151.284 525.228 151.372C526.86 151.406 528.166 152.199 528.021 154.14C527.9 155.769 526.719 156.399 525.28 156.479C523.29 156.59 521.291 156.536 519.297 156.597C517.46 156.654 515.455 156.51 515.39 159.232C515.326 161.882 517.144 162.058 519.094 162.079C520.091 162.09 521.093 162.065 522.086 162.145C523.856 162.286 526.116 161.954 526.158 164.63C526.204 167.62 523.768 167.216 521.828 167.393C520.021 167.558 518.218 167.77 516.125 168.237Z" fill="#006999"/>
<path d="M562.975 162.3C567.68 163.718 571.656 165.35 571.307 171.011C571.043 175.288 568.588 177.691 564.602 178.565C559.73 179.634 553.021 177.758 551.691 175.166C551.177 174.163 551.213 173.244 551.931 172.401C552.9 171.264 554.057 170.919 555.484 171.603C557.122 172.388 558.734 173.386 560.472 173.761C562.513 174.202 564.72 173.7 565.321 171.366C565.94 168.966 563.804 168.361 562.076 167.754C560.197 167.093 558.256 166.607 556.392 165.912C553.232 164.732 551.7 162.374 551.662 159.008C551.625 155.809 553.231 153.595 555.972 152.27C560.006 150.319 564.074 150.729 567.972 152.732C569.294 153.411 570.676 154.403 569.777 156.263C568.929 158.015 567.605 158.728 565.726 157.604C565.3 157.35 564.849 157.086 564.374 156.972C561.951 156.39 558.757 155.345 557.901 158.388C557.011 161.551 560.633 161.34 562.975 162.3Z" fill="#006999"/>
<path d="M36.6101 87.2552C35.8453 87.2988 35.5121 87.3161 35.1791 87.3141C28.3819 87.2733 24.6086 84.3434 24.8799 79.3195C25.1521 74.2785 29.5933 71.1929 35.7939 71.7526C39.6791 72.1034 42.5624 73.881 43.1829 77.927C43.9178 82.7182 41.9601 86.0199 36.6101 87.2552Z" fill="#006999"/>
<path d="M416.935 32.8205C421.8 35.48 422.299 39.4891 420.7 43.7012C419.287 47.4213 415.888 48.6392 412.105 48.1271C407.369 47.4859 404.604 43.0131 405.655 38.0969C406.651 33.4415 410.957 31.2994 416.935 32.8205Z" fill="white"/>
<path d="M597.122 178.487C596.127 177.842 595.118 177.269 595.106 176.676C594.954 169.193 594.897 161.708 594.938 154.224C594.948 152.49 596.129 151.499 597.914 151.568C599.538 151.631 600.303 152.716 600.309 154.211C600.341 161.372 600.326 168.533 600.285 175.693C600.275 177.42 599.462 178.535 597.122 178.487Z" fill="#006999"/>
<defs>
<linearGradient id="paint0_linear_6_25" x1="139.5" y1="0" x2="139.5" y2="268.774" gradientUnits="userSpaceOnUse">
<stop stop-color="#006999"/>
<stop offset="1" stop-color="#0396D9"/>
</linearGradient>
</defs>
</svg>
