<svg width="921" height="235" viewBox="0 0 921 235" fill="none" xmlns="http://www.w3.org/2000/svg">
<path d="M145.909 201.623C147.99 195.123 145.944 192.202 139.215 192.053C130.702 191.864 122.182 192.001 113.665 191.996C97.1522 191.985 80.6393 192.005 64.1266 191.945C58.0989 191.924 55.4506 189.73 55.2103 184.865C54.956 179.715 57.6223 176.434 63.4185 176.268C75.7486 175.914 88.0933 176.067 100.432 176.018C108.651 175.985 112.63 173.327 112.57 167.894C112.511 162.43 108.361 159.541 100.495 159.541C71.2934 159.54 42.0916 159.552 12.8899 159.554C11.1521 159.554 9.39983 159.643 7.67948 159.458C3.3625 158.991 0.0674225 155.552 0.000948567 151.612C-0.0639824 147.763 3.21262 143.997 7.35084 143.364C8.8837 143.129 10.4721 143.226 12.0351 143.225C37.239 143.215 62.4428 143.214 87.6467 143.209C89.9063 143.208 92.1696 143.28 94.4249 143.177C99.8881 142.929 103.216 139.843 103.367 134.994C103.525 129.937 100.14 126.353 94.4709 126.237C84.9146 126.041 75.3517 126.19 65.7918 126.147C59.0614 126.117 55.2154 123.091 55.3225 118.013C55.4265 113.081 59.5284 109.887 66.0394 109.865C81.5092 109.811 96.9792 109.813 112.449 109.83C116.778 109.835 119.765 107.784 121.431 103.928C122.805 100.747 121.168 98.1788 119.12 95.9156C117.503 94.1276 115.295 93.6355 112.954 93.6111C108.783 93.5677 104.604 93.6368 100.443 93.4097C94.4941 93.0852 91.0238 89.8974 91.0298 85.0697C91.036 80.059 94.2557 77.5304 100.646 77.3512C104.638 77.2392 108.64 77.0998 112.612 76.7093C117.374 76.2412 120.948 72.3792 120.826 68.1802C120.704 63.9315 116.995 60.5142 111.955 60.4576C100.136 60.3251 88.314 60.4851 76.497 60.2995C71.3795 60.2192 67.827 56.6655 67.8765 52.3545C67.9304 47.6574 71.4581 44.3903 76.8176 44.1213C78.2049 44.0517 79.5982 44.0956 80.9887 44.0956C100.63 44.096 120.274 43.9262 139.913 44.1764C148.86 44.2904 157.27 42.896 165.878 40.181C196.735 30.4497 226.208 34.6098 253.92 51.1201C260.77 55.2014 260.757 56.4465 256.055 62.8796C251.747 68.7729 247.361 74.6164 243.272 80.6598C240.391 84.9187 237.588 85.2955 233.397 82.2543C221.181 73.3892 207.35 68.9801 192.295 69.8962C158.576 71.9481 135.818 97.1595 136.278 127.545C136.663 153.006 157.733 177.004 183.754 181.831C206.412 186.035 226.966 176.911 237.497 157.944C238.671 155.83 239.917 153.719 240.164 151.109C238.489 149.341 236.276 150.092 234.326 150.082C219.725 150.013 205.124 150.09 190.524 150.023C187.514 150.009 183.83 151.097 182.044 147.633C180.216 144.089 183.555 141.873 185.217 139.434C188.837 134.121 192.802 129.045 196.498 123.782C198.254 121.281 200.393 120.167 203.498 120.172C226.789 120.208 250.081 120.165 273.372 120.045C277.533 120.024 278.934 122.276 278.986 125.895C279.502 161.546 265.311 189.196 234.158 207.301C220.04 215.506 204.532 218.943 188.24 218.945C165.469 218.948 142.699 218.971 119.929 218.982C118.364 218.983 116.793 219.048 115.237 218.924C110.098 218.515 107.255 215.616 107.403 211.04C107.54 206.83 110.451 203.977 115.386 203.854C123.203 203.659 131.028 203.775 138.85 203.766C141.284 203.763 143.767 203.967 145.909 201.623Z" fill="url(#paint0_linear_20_63)"/>
<path d="M75.7373 90.257C66.2458 91.7279 57.0968 91.134 47.9895 90.7339C42.9462 90.5124 40.3311 86.9653 40.7399 82.4179C41.1345 78.0286 43.8391 75.6899 48.9479 75.6278C56.4295 75.5368 63.9138 75.6614 71.3952 75.5626C75.3599 75.5102 78.8627 76.291 80.1837 80.4984C81.4945 84.6737 80.0845 88.0109 75.7373 90.257Z" fill="#006999"/>
<path d="M36.6101 122.255C35.8453 122.299 35.5121 122.316 35.1791 122.314C28.3819 122.273 24.6086 119.343 24.8799 114.319C25.1521 109.278 29.5933 106.193 35.7939 106.753C39.6791 107.103 42.5624 108.881 43.1829 112.927C43.9178 117.718 41.9601 121.02 36.6101 122.255Z" fill="#006999"/>
<path d="M308.901 102.119V87.3422C308.901 58.9884 324.953 41.6611 351.732 41.6611C363.658 41.6611 373.71 45.0365 380.986 51.3374C387.136 56.363 391.187 62.8139 391.187 68.2146C391.187 73.2403 387.736 76.6157 382.861 76.6157C379.935 76.6157 377.91 75.4906 375.735 72.7152C369.734 64.7642 363.358 59.0634 353.082 59.0634C337.63 59.0634 329.229 69.2648 329.229 88.1673V102.044C329.229 120.722 337.93 131.223 353.307 131.223C365.608 131.223 373.86 123.872 373.86 112.921V106.47H360.208C354.657 106.47 351.432 103.694 351.432 98.8187C351.432 93.9431 354.582 91.2427 360.208 91.2427H380.685C389.312 91.2427 393.137 95.0682 393.137 103.469V111.72C393.137 133.173 376.485 148.175 352.557 148.175C325.178 148.175 308.901 130.923 308.901 102.119ZM416.72 46.2367C416.72 40.2359 421.521 35.8853 427.897 35.8853C434.423 35.8853 439.148 40.2359 439.148 46.2367C439.148 52.2375 434.423 56.6631 427.897 56.6631C421.521 56.6631 416.72 52.2375 416.72 46.2367ZM437.798 135.874C437.798 143.075 434.048 146.75 427.897 146.75C421.821 146.75 418.07 143 418.07 135.874V76.6157C418.07 69.4148 421.821 65.6643 427.972 65.6643C434.048 65.6643 437.798 69.4148 437.798 76.6157V135.874ZM462.206 130.023C462.206 125.597 465.207 122.672 469.707 122.672C472.258 122.672 474.208 123.722 477.658 126.422C483.434 130.998 488.61 133.098 495.136 133.098C503.312 133.098 508.338 129.648 508.338 124.097C508.338 119.521 504.812 116.146 497.536 114.571L484.934 111.72C470.157 108.495 463.257 101.294 463.257 89.5175C463.257 74.5155 475.858 64.6892 495.511 64.6892C503.087 64.6892 510.288 66.3394 515.989 69.4148C521.689 72.4902 525.065 76.9158 525.065 81.4914C525.065 85.767 522.064 88.3923 517.564 88.3923C515.238 88.3923 513.138 87.6422 509.463 85.0169C503.762 80.6663 499.711 79.1661 494.461 79.1661C486.885 79.1661 482.309 82.7666 482.309 88.3173C482.309 92.8929 485.384 95.5933 492.21 97.1685L506.537 100.244C520.714 103.394 527.39 110.52 527.39 122.372C527.39 138.049 514.863 147.725 494.086 147.725C485.384 147.725 477.508 145.925 471.583 142.775C465.507 139.549 462.206 135.049 462.206 130.023ZM547.448 130.023C547.448 125.597 550.448 122.672 554.949 122.672C557.499 122.672 559.449 123.722 562.9 126.422C568.676 130.998 573.851 133.098 580.377 133.098C588.553 133.098 593.579 129.648 593.579 124.097C593.579 119.521 590.053 116.146 582.777 114.571L570.176 111.72C555.399 108.495 548.498 101.294 548.498 89.5175C548.498 74.5155 561.1 64.6892 580.752 64.6892C588.328 64.6892 595.529 66.3394 601.23 69.4148C606.931 72.4902 610.306 76.9158 610.306 81.4914C610.306 85.767 607.306 88.3923 602.805 88.3923C600.48 88.3923 598.38 87.6422 594.704 85.0169C589.003 80.6663 584.953 79.1661 579.702 79.1661C572.126 79.1661 567.55 82.7666 567.55 88.3173C567.55 92.8929 570.626 95.5933 577.452 97.1685L591.779 100.244C605.956 103.394 612.631 110.52 612.631 122.372C612.631 138.049 600.105 147.725 579.327 147.725C570.626 147.725 562.75 145.925 556.824 142.775C550.748 139.549 547.448 135.049 547.448 130.023ZM646.866 146.75C640.715 146.75 636.965 143.075 636.965 135.874V48.562C636.965 41.361 640.715 37.6105 646.866 37.6105C652.942 37.6105 656.767 41.361 656.767 48.562V135.874C656.767 143.075 652.942 146.75 646.866 146.75ZM681.401 111.42V101.144C681.401 79.3911 695.803 64.6892 717.18 64.6892C737.433 64.6892 751.76 79.0911 751.76 98.7437C751.76 107.67 749.21 110.595 741.784 110.595H701.503V114.046C701.578 125.147 708.629 132.273 720.406 132.273C726.557 132.273 730.907 130.773 734.433 127.848C738.258 124.922 739.608 123.797 742.684 123.797C746.809 123.797 749.66 126.647 749.66 130.998C749.66 134.523 747.484 137.899 743.734 140.599C738.483 145.025 729.407 147.725 719.131 147.725C695.803 147.725 681.401 133.998 681.401 111.42ZM701.503 98.0686H732.857V97.9186C732.857 87.0421 726.857 79.9912 717.48 79.9912C707.729 79.9912 701.503 87.1922 701.503 97.9186V98.0686ZM795.446 135.874C795.446 142.775 791.845 146.75 785.394 146.75C779.019 146.75 775.718 142.775 775.718 135.874V76.6157C775.718 69.6398 779.244 65.6643 785.469 65.6643C791.32 65.6643 794.621 69.1147 794.996 75.2656V77.1408H795.821C799.046 69.3398 804.897 65.1392 812.398 65.1392C815.323 65.1392 817.649 65.8893 819.374 67.3145C821.249 68.8147 822.224 71.065 822.224 73.9154C822.224 76.8408 821.324 78.9411 819.374 80.3662C817.799 81.5664 815.398 82.1665 812.173 82.2415C801.072 82.4665 795.446 88.5423 795.446 100.619V135.874Z" fill="white"/>
<path d="M325.254 214.911L315.636 180.266C315.374 179.35 315.243 178.27 315.243 177.648C315.243 175.457 316.813 173.886 319.071 173.886C321.099 173.886 322.408 175.326 323.062 178.205L329.965 208.335H330.357L337.718 178.205C338.438 175.26 339.747 173.886 342.069 173.886C344.392 173.886 345.701 175.293 346.42 178.205L353.781 208.335H354.174L361.011 178.205C361.633 175.358 362.974 173.886 365.002 173.886C367.227 173.886 368.83 175.457 368.83 177.616C368.83 178.237 368.699 179.317 368.503 180.004L358.885 214.911C358.001 218.051 356.824 219.164 354.501 219.164C352.08 219.164 350.673 217.92 349.855 214.812L342.233 185.86H341.906L334.25 214.911C333.465 217.855 332.059 219.164 329.736 219.164C327.413 219.164 326.17 218.182 325.254 214.911ZM391.159 213.7V179.644C391.159 176.013 392.925 174.344 396.786 174.344H416.185C418.214 174.344 419.555 175.587 419.555 177.485C419.555 179.382 418.214 180.593 416.185 180.593H398.552V193.319H415.171C417.101 193.319 418.377 194.497 418.377 196.329C418.377 198.161 417.101 199.306 415.171 199.306H398.552V212.751H416.12C418.214 212.751 419.555 213.962 419.555 215.892C419.555 217.79 418.214 219 416.12 219H396.786C392.925 219 391.159 217.364 391.159 213.7ZM443.683 213.7V179.644C443.683 176.013 445.45 174.344 449.31 174.344H461.48C469.364 174.344 474.304 178.597 474.304 185.336C474.304 190.342 471.589 193.908 466.91 195.151V195.478C472.93 196.165 476.725 200.32 476.725 206.438C476.725 214.158 470.705 219 461.153 219H449.31C445.45 219 443.683 217.364 443.683 213.7ZM451.077 193.221H457.358C463.999 193.221 466.943 190.996 466.943 186.58C466.943 182.621 464.359 180.233 459.942 180.233H451.077V193.221ZM451.077 213.111H458.176C465.994 213.111 469.168 210.887 469.168 206.176C469.168 201.563 466.06 198.815 460.531 198.815H451.077V213.111ZM500.428 213.7V179.644C500.428 175.98 502.161 174.344 506.022 174.344H515.803C528.791 174.344 535.629 182.032 535.629 196.688C535.629 211.312 528.791 219 515.803 219H506.022C502.161 219 500.428 217.364 500.428 213.7ZM507.821 212.719H515.084C523.851 212.719 528.039 207.517 528.039 196.688C528.039 185.827 523.819 180.593 515.084 180.593H507.821V212.719ZM559.397 213.7V179.644C559.397 176.013 561.163 174.344 565.024 174.344H584.424C586.452 174.344 587.793 175.587 587.793 177.485C587.793 179.382 586.452 180.593 584.424 180.593H566.79V193.319H583.409C585.34 193.319 586.615 194.497 586.615 196.329C586.615 198.161 585.34 199.306 583.409 199.306H566.79V212.751H584.358C586.452 212.751 587.793 213.962 587.793 215.892C587.793 217.79 586.452 219 584.358 219H565.024C561.163 219 559.397 217.364 559.397 213.7ZM609.598 209.807C609.598 207.844 610.907 206.47 612.673 206.47C614.08 206.47 615.16 207.125 616.566 208.891C618.987 212.097 622.357 213.7 626.675 213.7C632.335 213.7 635.672 211.345 635.672 207.255C635.672 203.918 633.447 201.825 628.54 200.582L621.474 198.75C614.015 196.917 610.285 192.894 610.285 186.678C610.285 178.695 616.632 173.461 626.217 173.461C631.255 173.461 635.737 174.9 638.616 177.518C640.71 179.415 641.888 181.607 641.888 183.701C641.888 185.533 640.645 186.776 638.813 186.776C637.439 186.776 636.424 186.187 635.607 184.878C633.84 181.607 630.536 179.677 626.348 179.677C621.212 179.677 617.875 182.196 617.875 186.122C617.875 189.131 620.002 191.291 624.156 192.337L631.19 194.104C639.303 196.132 643.033 199.993 643.033 206.438C643.033 214.747 636.523 219.949 626.283 219.949C620.721 219.949 615.814 218.411 612.935 215.761C610.743 213.766 609.598 211.705 609.598 209.807ZM670.465 219.327C668.142 219.327 666.735 217.822 666.735 215.271V178.074C666.735 175.522 668.109 174.017 670.465 174.017C672.788 174.017 674.162 175.522 674.162 178.074V215.271C674.162 217.822 672.788 219.327 670.465 219.327ZM698.551 200.058V193.253C698.551 180.92 705.29 173.461 716.708 173.461C721.942 173.461 726.293 174.999 729.401 177.943C731.888 180.2 733.523 183.046 733.523 185.206C733.523 187.136 732.28 188.379 730.415 188.379C729.172 188.379 728.354 187.855 727.438 186.481C724.821 182.359 721.779 179.938 717.133 179.938C710.001 179.938 705.977 184.748 705.977 193.482V200.025C705.977 208.629 710.165 213.602 717.362 213.602C723.251 213.602 727.144 210.069 727.144 204.802V201.301H719.849C717.689 201.301 716.414 200.222 716.414 198.357C716.414 196.492 717.689 195.413 719.849 195.413H729.401C732.771 195.413 734.276 196.917 734.276 200.222V204.475C734.276 213.504 727.111 219.949 717.133 219.949C705.487 219.949 698.551 212.522 698.551 200.058ZM765.699 215.369C765.699 217.822 764.423 219.327 762.199 219.327C759.974 219.327 758.665 217.822 758.665 215.369V178.63C758.665 175.62 760.007 174.017 762.624 174.017C764.554 174.017 765.699 175.26 767.302 177.681L785.95 206.405H786.309V177.976C786.309 175.522 787.553 174.017 789.777 174.017C792.002 174.017 793.31 175.522 793.31 177.976V214.845C793.31 217.757 792.035 219.327 789.548 219.327C787.618 219.327 786.571 218.509 784.837 215.892L766.026 186.841H765.699V215.369Z" fill="#0396D9"/>
<defs>
<linearGradient id="paint0_linear_20_63" x1="139.5" y1="35" x2="139.5" y2="303.774" gradientUnits="userSpaceOnUse">
<stop stop-color="#006999"/>
<stop offset="1" stop-color="#0396D9"/>
</linearGradient>
</defs>
</svg>
