<svg width="279" height="184" viewBox="0 0 279 184" fill="none" xmlns="http://www.w3.org/2000/svg">
<path d="M145.909 166.623C147.99 160.123 145.944 157.203 139.215 157.053C130.702 156.864 122.182 157.001 113.665 156.996C97.1522 156.985 80.6393 157.005 64.1266 156.945C58.0989 156.924 55.4506 154.73 55.2103 149.865C54.956 144.715 57.6223 141.434 63.4185 141.268C75.7486 140.914 88.0933 141.067 100.432 141.018C108.651 140.985 112.63 138.327 112.57 132.894C112.511 127.43 108.361 124.541 100.495 124.541C71.2934 124.54 42.0916 124.552 12.8899 124.554C11.1521 124.554 9.39983 124.643 7.67948 124.458C3.3625 123.991 0.0674225 120.552 0.000948567 116.612C-0.0639824 112.763 3.21262 108.997 7.35084 108.364C8.8837 108.129 10.4721 108.226 12.0351 108.225C37.239 108.215 62.4428 108.214 87.6467 108.209C89.9063 108.208 92.1696 108.28 94.4249 108.177C99.8881 107.929 103.216 104.843 103.367 99.9943C103.525 94.937 100.14 91.3532 94.4709 91.2369C84.9146 91.0407 75.3517 91.1899 65.7918 91.1471C59.0614 91.117 55.2154 88.091 55.3225 83.0126C55.4265 78.0806 59.5284 74.8873 66.0394 74.8648C81.5092 74.8112 96.9792 74.8132 112.449 74.8299C116.778 74.8347 119.765 72.7844 121.431 68.9285C122.805 65.7474 121.168 63.1788 119.12 60.9156C117.503 59.1276 115.295 58.6355 112.954 58.6112C108.783 58.5677 104.604 58.6368 100.443 58.4097C94.4941 58.0852 91.0238 54.8974 91.0298 50.0697C91.036 45.059 94.2557 42.5304 100.646 42.3512C104.638 42.2392 108.64 42.0998 112.612 41.7093C117.374 41.2412 120.948 37.3792 120.826 33.1802C120.704 28.9315 116.996 25.5142 111.955 25.4576C100.136 25.3251 88.314 25.4851 76.497 25.2995C71.3795 25.2192 67.827 21.6655 67.8765 17.3545C67.9303 12.6574 71.4581 9.39033 76.8176 9.12133C78.2049 9.05172 79.5982 9.09559 80.9887 9.09563C100.63 9.09602 120.274 8.92619 139.913 9.17644C148.86 9.29044 157.27 7.89597 165.878 5.18104C196.735 -4.5503 226.208 -0.39018 253.92 16.1201C260.77 20.2014 260.757 21.4465 256.055 27.8796C251.747 33.7729 247.361 39.6164 243.272 45.6598C240.391 49.9187 237.588 50.2955 233.397 47.2543C221.181 38.3892 207.35 33.9801 192.295 34.8962C158.576 36.9481 135.818 62.1595 136.278 92.5454C136.663 118.006 157.733 142.004 183.754 146.831C206.412 151.035 226.966 141.911 237.497 122.944C238.671 120.83 239.917 118.719 240.164 116.109C238.489 114.341 236.276 115.092 234.326 115.082C219.725 115.013 205.124 115.09 190.524 115.023C187.514 115.009 183.83 116.097 182.044 112.633C180.216 109.089 183.555 106.873 185.217 104.434C188.837 99.1208 192.802 94.0452 196.498 88.7824C198.254 86.2814 200.393 85.167 203.498 85.1718C226.789 85.2078 250.081 85.1653 273.372 85.0453C277.533 85.0239 278.934 87.2762 278.986 90.8949C279.502 126.546 265.311 154.196 234.158 172.301C220.04 180.506 204.532 183.943 188.24 183.945C165.469 183.948 142.699 183.971 119.929 183.982C118.364 183.983 116.793 184.048 115.237 183.924C110.098 183.515 107.255 180.616 107.403 176.04C107.54 171.83 110.451 168.977 115.386 168.854C123.203 168.659 131.028 168.775 138.85 168.766C141.284 168.763 143.767 168.967 145.909 166.623Z" fill="url(#paint0_linear_6_4)"/>
<defs>
<linearGradient id="paint0_linear_6_4" x1="139.5" y1="0" x2="139.5" y2="268.774" gradientUnits="userSpaceOnUse">
<stop stop-color="#006999"/>
<stop offset="1" stop-color="#0396D9"/>
</linearGradient>
</defs>
</svg>
