<svg width="1200" height="630" viewBox="0 0 1200 630" xmlns="http://www.w3.org/2000/svg">
  <defs>
    <linearGradient id="bg" x1="0" y1="0" x2="1200" y2="630" gradientUnits="userSpaceOnUse">
      <stop offset="0%" stop-color="#0d1115"/>
      <stop offset="100%" stop-color="#0f1e20"/>
    </linearGradient>
    <radialGradient id="glow" cx="50%" cy="40%" r="50%">
      <stop offset="0%" stop-color="#006999" stop-opacity="0.18"/>
      <stop offset="100%" stop-color="#0d1115" stop-opacity="0"/>
    </radialGradient>
  </defs>

  <!-- Background -->
  <rect width="1200" height="630" fill="url(#bg)"/>
  <ellipse cx="600" cy="252" rx="500" ry="330" fill="url(#glow)"/>

  <!-- Corner accents -->
  <line x1="0" y1="0" x2="80" y2="0" stroke="#006999" stroke-width="3" stroke-opacity="0.7"/>
  <line x1="0" y1="0" x2="0" y2="80" stroke="#006999" stroke-width="3" stroke-opacity="0.7"/>
  <line x1="1200" y1="630" x2="1120" y2="630" stroke="#006999" stroke-width="3" stroke-opacity="0.7"/>
  <line x1="1200" y1="630" x2="1200" y2="550" stroke="#006999" stroke-width="3" stroke-opacity="0.7"/>

  <!-- Logo centered at (600, 217), scale 2 -->
  <g transform="translate(499.82, 126.65) scale(2)" fill="none">
    <path d="M2.79 46.54L50.2 70.54L97.68 46.55" stroke="#006999" stroke-width="5" stroke-linecap="round" stroke-linejoin="round"/>
    <path d="M97.68 61.86L50.2 85.85L2.79 61.85L2.5 28" stroke="#006999" stroke-width="5" stroke-linecap="round" stroke-linejoin="round"/>
    <path d="M49.93 5L5 27.8L49.93 50.59L95 28L71.82 16.53L61.375 21.835L50.93 27.14" stroke="#006999" stroke-width="10" stroke-linecap="round" stroke-linejoin="round"/>
  </g>

  <!-- Title -->
  <text x="600" y="378" text-anchor="middle" font-family="'Segoe UI', 'Helvetica Neue', Arial, sans-serif" font-size="70" font-weight="700" fill="white" letter-spacing="-1">GA Webdesign</text>

  <!-- Separator -->
  <rect x="490" y="396" width="220" height="2" fill="#006999" fill-opacity="0.6"/>

  <!-- Tagline -->
  <text x="600" y="443" text-anchor="middle" font-family="'Segoe UI', 'Helvetica Neue', Arial, sans-serif" font-size="28" fill="#5db8e8">Moderne Webseiten für lokale Unternehmen</text>

  <!-- Domain -->
  <text x="600" y="498" text-anchor="middle" font-family="'Segoe UI', 'Helvetica Neue', Arial, sans-serif" font-size="20" fill="white" fill-opacity="0.35" letter-spacing="1">gissler-webdesign.de</text>

  <!-- Bottom bar -->
  <rect x="0" y="615" width="1200" height="6" fill="#006999"/>
  <rect x="0" y="621" width="1200" height="9" fill="#006999" fill-opacity="0.25"/>
</svg>
